<svg xmlns="http://www.w3.org/2000/svg" fill="none" viewBox="0 0 52 52">
  <path fill="#00B2FF" d="M32.07 13.87a2.6 2.6 0 012.44 1.73h8.98a2.6 2.6 0 110 1.73h-8.98a2.6 2.6 0 11-2.44-3.46zm13.86 3.46a.87.87 0 100-1.73.87.87 0 000 1.73zm-13.86 0a.87.87 0 100-1.73.87.87 0 000 1.73z"/>
  <path fill="#00B2FF" d="M25.13 19.23v-5.36c0-.23.1-.45.26-.62l3.46-3.46a.86.86 0 01.62-.26h2.76a2.6 2.6 0 110 1.74h-2.4l-2.96 2.96v5a2.6 2.6 0 11-1.74 0zm9.54-7.96a.87.87 0 100-1.74.87.87 0 000 1.74zM26 22.53a.87.87 0 100-1.73.87.87 0 000 1.73zM9.53 22.53c.4 0 .78.1 1.12.26l1.48-1.48V13c0-.23.1-.45.26-.61l8.67-8.68A2.6 2.6 0 1123.4 5.2c-.4 0-.77-.1-1.11-.26l-8.42 8.42v8.3c0 .24-.1.46-.26.62l-1.74 1.74a2.6 2.6 0 11-2.34-1.49zM23.4 3.47a.87.87 0 100-1.74.87.87 0 000 1.74zM9.53 26a.87.87 0 100-1.74.87.87 0 000 1.74zM1.73 12.3V8.66c0-.23.1-.45.26-.62L8.05 2a.86.86 0 01.62-.26h4.49a2.6 2.6 0 110 1.74H9.03L3.47 9.03v3.26a2.6 2.6 0 11-1.74 0zM15.6 3.46a.87.87 0 100-1.74.87.87 0 000 1.74zM2.6 15.6a.87.87 0 100-1.74.87.87 0 000 1.74zM13.87 46.96V34.51a2.6 2.6 0 113.3-3.31h8.99a2.6 2.6 0 012.44-1.73 2.6 2.6 0 012.44 1.73h5l3.22-3.22a2.6 2.6 0 112.34 1.49c-.4 0-.77-.1-1.11-.26L37 32.68a.86.86 0 01-.61.25h-5.36a2.6 2.6 0 01-2.44 1.74 2.6 2.6 0 01-2.44-1.74h-8.99a2.6 2.6 0 01-1.57 1.58v12.45a2.6 2.6 0 11-1.73 0zM41.6 27.73a.87.87 0 100-1.73.87.87 0 000 1.73zm-13 5.2a.87.87 0 100-1.73.87.87 0 000 1.73zM14.73 50.27a.87.87 0 100-1.74.87.87 0 000 1.74zm0-17.34a.87.87 0 100-1.73.87.87 0 000 1.73z"/>
  <path fill="#00B2FF" d="M18.2 17.5v-2.77c0-.23.1-.45.25-.61l10.41-10.4A2.6 2.6 0 0131.2 0a2.6 2.6 0 012.44 1.72h3.63c.48 0 .86.4.86.87v2.24l3.22 3.22a2.6 2.6 0 11-1.49 2.34c0-.4.1-.77.27-1.11L36.65 5.8a.86.86 0 01-.25-.61V3.47h-2.76a2.6 2.6 0 01-3.55 1.47L19.93 15.09v2.4a2.6 2.6 0 11-1.73 0zm24.27-6.23a.87.87 0 100-1.74.87.87 0 000 1.74zM31.2 3.47a.87.87 0 100-1.74.87.87 0 000 1.74zM19.07 20.8a.87.87 0 100-1.74.87.87 0 000 1.74z"/>
  <path fill="#00B2FF" d="M20.8 24.27A2.6 2.6 0 0123.24 26h10.2l4.95-4.95a.86.86 0 01.61-.25h9.17l2.1-2.1v-7.07l-6.69-6.7c-.34.17-.71.27-1.11.27a2.6 2.6 0 112.6-2.6c0 .4-.1.77-.26 1.11l6.94 6.94c.16.17.25.39.25.62v7.8c0 .23-.1.45-.25.6l-2.6 2.6a.86.86 0 01-.62.26h-9.17l-4.95 4.95a.86.86 0 01-.61.25H23.24a2.6 2.6 0 11-2.44-3.46zM42.47 1.73a.87.87 0 100 1.74.87.87 0 000-1.74zm-21.67 26a.87.87 0 100-1.73.87.87 0 000 1.73zM2.6 20.8c.4 0 .77.1 1.11.26l3.22-3.22v-5a2.6 2.6 0 111.74 0v5.36c0 .23-.1.45-.26.61L4.94 22.3a2.56 2.56 0 01-1.47 3.55v.67l6.68 6.68c.16.16.25.38.25.61v1.03a2.6 2.6 0 011.73 2.44 2.6 2.6 0 01-1.73 2.44v2.05a2.6 2.6 0 11-1.73 0v-2.05a2.6 2.6 0 01-1.74-2.44 2.6 2.6 0 011.74-2.44v-.67l-6.68-6.68a.86.86 0 01-.26-.61v-1.03a2.6 2.6 0 01.87-5.04zm5.2-9.53a.87.87 0 100-1.74.87.87 0 000 1.74zm1.73 33.8a.87.87 0 100-1.74.87.87 0 000 1.74zm0-6.94a.87.87 0 100-1.73.87.87 0 000 1.73zM2.6 24.27a.87.87 0 100-1.74.87.87 0 000 1.74z"/>
</svg>
